HIERARCHY
ROOT ui
{
	 OFFSET 0 0 0
	 CHANNELS 3 XPosition YPosition Z Position
	 EndSite
	 {
	 OFFSET 0 -1 0
	 }
}
ROOT li
{
	 OFFSET 0 0 0
	 CHANNELS 3 XPosition YPosition Z Position
	 EndSite
	 {
	 OFFSET 0 -1 0
	 }
}
ROOT ul
{
	 OFFSET 0 0 0
	 CHANNELS 3 XPosition YPosition Z Position
	 EndSite
	 {
	 OFFSET 0 -1 0
	 }
}
ROOT ll
{
	 OFFSET 0 0 0
	 CHANNELS 3 XPosition YPosition Z Position
	 EndSite
	 {
	 OFFSET 0 -1 0
	 }
}
ROOT tt
{
	 OFFSET 0 0 0
	 CHANNELS 3 XPosition YPosition Z Position
	 EndSite
	 {
	 OFFSET 0 -1 0
	 }
}
ROOT tb
{
	 OFFSET 0 0 0
	 CHANNELS 3 XPosition YPosition Z Position
	 EndSite
	 {
	 OFFSET 0 -1 0
	 }
}
ROOT td
{
	 OFFSET 0 0 0
	 CHANNELS 3 XPosition YPosition Z Position
	 EndSite
	 {
	 OFFSET 0 -1 0
	 }
}
ROOT v
{
	 OFFSET 0 0 0
	 CHANNELS 3 XPosition YPosition Z Position
	 EndSite
	 {
	 OFFSET 0 -1 0
	 }
}
ROOT bn
{
	 OFFSET 0 0 0
	 CHANNELS 3 XPosition YPosition Z Position
	 EndSite
	 {
	 OFFSET 0 -1 0
	 }
}
MOTION
Frames: 29
Frame Time: 0.002
-0.004533463001251221	-4.48170006275177E-5	0		0.5415509643554688	-2.397732177734375	0		-1.0947755126953125	0.05360387802124023	0		-0.6408248901367187	-2.643552001953125	0		1.449231689453125	-0.845024658203125	0		3.20413427734375	-0.04691315841674805	0		4.72839990234375	0.13105111694335939	0		5.8934267578125	0.5238312377929687	0		-0.2636716003417969	5.90124853515625	0		
-0.0024910449981689455	0.002649894952774048	0		0.540802490234375	-2.397927001953125	0		-1.0917220458984376	0.05716337585449219	0		-0.6076026000976562	-2.647451904296875	0		1.4483150634765625	-0.84512109375	0		3.203131103515625	-0.046819515228271484	0		4.74020556640625	0.12109042358398438	0		5.88923193359375	0.5384837036132812	0		-0.3835057373046875	5.89097314453125	0		
-0.0035255229473114013	0.0024012770652770995	0		0.5441002197265625	-2.39418359375	0		-1.164684814453125	0.06200912094116211	0		-0.6294087524414063	-2.651412353515625	0		1.449424560546875	-0.8422435913085937	0		3.200304931640625	-0.034681861877441406	0		4.73841162109375	0.136380615234375	0		5.90498486328125	0.55234765625	0		-0.2660221557617187	5.89967236328125	0		
-0.004574138164520264	0.0021608550548553465	0		0.5692799072265625	-2.396799072265625	0		-1.090767333984375	0.059382583618164064	0		-0.598251708984375	-2.657258056640625	0		1.4484696044921874	-0.8423230590820312	0		3.204142333984375	-0.04165023803710938	0		4.73734814453125	0.1366654815673828	0		5.89710888671875	0.5550863647460937	0		-0.26772402954101565	5.89940283203125	0		
-0.005624053955078125	0.0019313440322875977	0		0.5404959106445313	-2.396499267578125	0		-1.094873046875	0.056084819793701175	0		-0.6468712158203125	-2.64875390625	0		1.4475118408203125	-0.8423938598632813	0		3.2361591796875	-0.03807955932617187	0		4.73216748046875	0.13002154541015626	0		5.9034716796875	0.5537884521484375	0		-0.2694181213378906	5.89914453125	0		
0.018334890365600588	0.0013011029958724975	0		0.58957275390625	-2.405484619140625	0		-1.0999820556640625	0.051819942474365235	0		-0.6048660278320312	-2.663748046875	0		1.4406802978515625	-0.835358154296875	0		3.1971806640625	-0.03432440185546875	0		4.72801708984375	0.1243568344116211	0		5.895603515625	0.5565139770507812	0		-0.4053923034667969	5.88112109375	0		
-0.007673602104187011	0.0015133819580078125	0		0.5369085693359374	-2.398771484375	0		-1.0969337158203125	0.055442123413085936	0		-0.607626220703125	-2.6649765625	0		1.445636474609375	-0.842511962890625	0		3.19617236328125	-0.03420387649536133	0		4.73009130859375	0.13058108520507813	0		5.89901171875	0.5362654418945313	0		-0.2717009582519531	5.8976552734375	0		
0.016349197387695313	9.190679788589478E-4	0		0.5402246704101562	-2.3949716796875	0		-1.0979127197265626	0.055154644012451175	0		-0.62941259765625	-2.6688740234375	0		1.452904296875	-0.8326932373046875	0		3.23121337890625	-0.0336778335571289	0		4.7280888671875	0.1298565216064453	0		5.89852099609375	0.5680406494140625	0		-0.39140823364257815	5.88737744140625	0		
-0.0024592390060424805	0.008045025825500488	0		0.5415542602539063	-2.392125732421875	0		-1.0957935791015625	0.057843696594238284	0		-0.596161376953125	-2.6726484375	0		1.4720322265625	-0.8340612182617188	0		3.226357177734375	-0.029503198623657228	0		4.74226513671875	0.13685012817382813	0		5.9042607421875	0.566645751953125	0		-0.2746588745117188	5.89725439453125	0		
0.06453488159179688	-0.0012054820060729981	0		0.5877039794921874	-2.402993896484375	0		-1.10377734375	0.050723396301269534	0		-0.612771240234375	-2.669585693359375	0		1.4512486572265626	-0.8327738647460937	0		3.19649658203125	-0.028934595108032226	0		4.7224228515625	0.13937347412109374	0		5.8972294921875	0.5691580200195312	0		-0.4102870178222656	5.879255859375	0		
-0.011243755340576173	8.752020001411438E-4	0		0.5341180419921875	-2.399232666015625	0		-1.1086331787109376	0.04758005142211914	0		-0.5814790649414062	-2.675276123046875	0		1.47048193359375	-0.8341307983398437	0		3.230560302734375	-0.03741382217407226	0		4.73338134765625	0.1253697509765625	0		5.9001123046875	0.5539151611328125	0		-0.411491455078125	5.87909521484375	0		
0.009945307731628418	-0.003595746994018555	0		0.5433702392578125	-2.408477783203125	0		-1.1093797607421876	0.04739722442626953	0		-0.6401375122070313	-2.6794951171875	0		1.44980615234375	-0.8328399047851562	0		3.2117568359375	-0.041050357818603514	0		4.7257275390625	0.13164401245117188	0		5.90025537109375	0.5490997314453125	0		-0.4115989990234375	5.8779375	0		
-0.012675256729125976	6.543750166893006E-4	0		0.5188894653320313	-2.40316845703125	0		-1.101958740234375	0.05410895538330078	0		-0.6057080688476563	-2.681190673828125	0		1.4522249755859375	-0.828916259765625	0		3.218374755859375	-0.022102251052856445	0		4.734255859375	0.1456384735107422	0		5.902716796875	0.5649051513671876	0		-0.26511080932617187	5.90645556640625	0		
0.011684671401977539	1.6662900149822234E-4	0		0.53648681640625	-2.395521240234375	0		-1.10259814453125	0.053971233367919924	0		-0.6412031860351562	-2.6797470703125	0		1.4567208251953125	-0.82301904296875	0		3.213515869140625	-0.03597882843017578	0		4.72850146484375	0.13884555053710937	0		5.90523681640625	0.5841331787109375	0		-0.28017282104492186	5.89658056640625	0		
-0.013903333663940429	4.914380013942718E-4	0		0.5319299926757812	-2.39950927734375	0		-1.12228466796875	0.04815581512451172	0		-0.577836669921875	-2.68986572265625	0		1.4561630859375	-0.8230336303710938	0		3.2370185546875	-0.030304981231689454	0		4.73379248046875	0.13186955261230468	0		5.9153720703125	0.5632515869140625	0		-0.2810042419433594	5.8964951171875	0		
0.01054314136505127	3.2985001802444455E-5	0		0.531469482421875	-2.3995498046875	0		-1.1159171142578126	0.04294260025024414	0		-0.6590853881835937	-2.676661865234375	0		1.458706787109375	-0.819087890625	0		3.21659912109375	-0.021927509307861328	0		4.73245947265625	0.14600030517578125	0		5.9149765625	0.563531005859375	0		-0.28177532958984375	5.896423828125	0		
-0.018014907836914062	-0.0025699610710144044	0		0.540895263671875	-2.408736572265625	0		-1.1164326171875	0.04285588073730469	0		-0.5817694702148437	-2.6939677734375	0		1.4709976806640626	-0.8332891235351563	0		3.2130068359375	-0.02681473731994629	0		4.73271826171875	0.13210369873046876	0		5.904724609375	0.5797589111328125	0		-0.4158115234375	5.877478515625	0		
-0.015448749542236328	3.46222996711731E-4	0		0.5425253295898438	-2.406785888671875	0		-1.1807171630859374	0.055794975280761716	0		-0.6371703491210937	-2.694151611328125	0		1.4807645263671876	-0.8194358520507813	0		3.233524169921875	-0.02707620620727539	0		4.7263447265625	0.13931890869140626	0		5.91446484375	0.595220947265625	0		-0.2802348937988281	5.89227490234375	0		
0.0161925106048584	0.005816265106201172	0		0.5852420654296875	-2.4014716796875	0		-1.10925634765625	0.04959741592407227	0		-0.5814934692382813	-2.692080322265625	0		1.48622998046875	-0.8265057983398437	0		3.219235107421875	-0.016776405334472656	0		4.73100048828125	0.1463666534423828	0		5.9104736328125	0.5800768432617187	0		-0.28284066772460936	5.89427392578125	0		
-0.01631602096557617	3.1014099717140196E-4	0		0.529922119140625	-2.399598388671875	0		-1.124705322265625	0.047787567138671876	0		-0.6079812622070313	-2.70169921875	0		1.4799490966796875	-0.8193773193359375	0		3.200741455078125	-0.02140299415588379	0		4.730578125	0.14650306701660157	0		5.9101728515625	0.5803775634765626	0		-0.28441140747070315	5.8962685546875	0		
0.008295730590820312	-8.505800366401672E-5	0		0.5794791259765625	-2.408368896484375	0		-1.0511168212890625	0.04558734512329102	0		-0.5794122924804688	-2.710174560546875	0		1.485478515625	-0.8264264526367188	0		3.223322509765625	-0.023666994094848633	0		4.7301884765625	0.14664796447753906	0		5.90347705078125	0.5809371337890625	0		-0.4173086547851563	5.876337890625	0		
-0.02009906005859375	-0.002637248992919922	0		0.5293335571289063	-2.3995595703125	0		-1.11852392578125	0.04261516571044922	0		-0.6136290893554688	-2.7066513671875	0		1.4881993408203125	-0.8234208984375	0		3.22297216796875	-0.023560674667358398	0		4.7298330078125	0.1468004608154297	0		5.90964306640625	0.5810193481445313	0		-0.4178398742675781	5.87633251953125	0		
0.057607395172119144	-0.0018453049659729005	0		0.5409810791015625	-2.40671533203125	0		-1.1188406982421875	0.04259577178955078	0		-0.6118298950195312	-2.704686767578125	0		1.462006591796875	-0.816953125	0		3.217767822265625	-0.01636862564086914	0		4.72951318359375	0.14696151733398438	0		5.9160234375	0.6105241088867187	0		-0.27086883544921875	5.90502734375	0		
-0.017647329330444335	3.509869873523712E-4	0		0.5407781982421875	-2.406676513671875	0		-1.1260426025390624	0.047690624237060546	0		-0.6120232543945312	-2.7046845703125	0		1.504763427734375	-0.8165574340820313	0		3.226456298828125	-0.018384836196899415	0		4.7392275390625	0.14697763061523436	0		5.9192978515625	0.5969154052734374	0		-0.2855070495605469	5.8942607421875	0		
0.007102560997009277	-1.2190000154078007E-5	0		0.5806227416992188	-2.406255126953125	0		-1.126291259765625	0.04768033218383789	0		-0.6250841674804688	-2.698475341796875	0		1.4645799560546875	-0.8138553466796875	0		3.235318115234375	-0.01139018154144287	0		4.7289765625	0.14732046508789062	0		5.9220595703125	0.6110385131835937	0		-0.2859521484375	5.89427880859375	0		
-0.01811396598815918	4.101389944553375E-4	0		0.5265575561523438	-2.401361328125	0		-1.1305587158203125	0.044735763549804686	0		-0.585477294921875	-2.71608544921875	0		1.504353271484375	-0.8163930053710937	0		3.217023193359375	-0.015961440086364746	0		4.73875048828125	0.1473657684326172	0		5.91895751953125	0.5977302856445312	0		-0.420660888671875	5.87739013671875	0		
0.003624737024307251	-0.003894161939620972	0		0.5872109375	-2.41724951171875	0		-1.1238353271484376	0.03962278747558594	0		-0.6195211181640625	-2.712542236328125	0		1.471082763671875	-0.8227854614257812	0		3.215013916015625	-0.00377341890335083	0		4.7285498046875	0.14773663330078124	0		5.919494140625	0.59296484375	0		-0.2858148193359375	5.89331298828125	0		
-0.018486776351928712	4.883620142936706E-4	0		0.540290771484375	-2.406457275390625	0		-1.1199671630859376	0.042558067321777346	0		-0.6155286865234375	-2.708587158203125	0		1.5049659423828126	-0.8212122802734375	0		3.266645751953125	-0.016408496856689454	0		4.75042724609375	0.1516242218017578	0		5.9294482421875	0.608636474609375	0		-0.25594873046875	5.91087646484375	0		
0.06342262649536133	0.004266351222991943	0		0.5931790771484375	-2.410207275390625	0		-1.122987548828125	0.05160360717773437	0		-0.6145444946289063	-2.706581787109375	0		1.484075927734375	-0.8057813110351563	0		3.22364794921875	-0.005564474105834961	0		4.73540380859375	0.1610968017578125	0		5.925173828125	0.6283286743164063	0		-0.2876090393066406	5.8943935546875	0		
